<?xml version="1.0" encoding="UTF-8"?>
<svg xmlns="http://www.w3.org/2000/svg" width="360pt" height="360pt" viewBox="0 0 360 360" version="1.1">
<g>
  <path style="stroke:none;fill-rule:nonzero;fill:#b0a0d0;" d="M 330 112.5 C 330 108.359375 326.640625 105 322.5 105 L 37.515625 105 C 37.515625 105 37.507812 105 37.5 105 C 35.511719 105 33.609375 105.789062 32.203125 107.191406 C 30.789062 108.59375 30 110.503906 30 112.5 L 30 270 C 30 290.707031 46.792969 307.5 67.5 307.5 L 292.5 307.5 C 313.207031 307.5 330 290.707031 330 270 Z M 330 112.5 "/>
  <path style="stroke:none;fill-rule:nonzero;fill:#201040;" d="M 322.5 120 C 318.351562 120 315 116.648438 315 112.5 L 315 90 C 315 77.59375 304.90625 67.5 292.5 67.5 L 67.5 67.5 C 55.09375 67.5 45 77.59375 45 90 L 45 112.5 C 45 116.648438 41.648438 120 37.5 120 C 33.351562 120 30 116.648438 30 112.5 L 30 90 C 30 69.324219 46.824219 52.5 67.5 52.5 L 292.5 52.5 C 313.175781 52.5 330 69.324219 330 90 L 330 112.5 C 330 116.648438 326.648438 120 322.5 120 Z M 322.5 120 "/>
  <path style="stroke:none;fill-rule:nonzero;fill:#201040;" d="M 165.007812 270 C 164.316406 270 163.628906 269.902344 162.945312 269.714844 C 158.960938 268.574219 156.652344 264.421875 157.785156 260.445312 L 187.785156 155.445312 C 188.933594 151.453125 193.109375 149.203125 197.054688 150.285156 C 201.039062 151.425781 203.347656 155.578125 202.214844 159.554688 L 172.214844 264.554688 C 171.269531 267.855469 168.269531 270 165.007812 270 Z M 165.007812 270 "/>
  <path style="stroke:none;fill-rule:nonzero;fill:#201040;" d="M 134.992188 247.5 C 133.558594 247.5 132.105469 247.085938 130.824219 246.234375 L 85.824219 216.066406 C 83.738281 214.664062 82.492188 212.324219 82.5 209.8125 C 82.507812 207.308594 83.765625 204.96875 85.851562 203.585938 L 130.851562 173.753906 C 134.300781 171.441406 138.960938 172.402344 141.246094 175.851562 C 143.542969 179.308594 142.597656 183.960938 139.148438 186.246094 L 103.523438 209.863281 L 139.175781 233.765625 C 142.621094 236.078125 143.535156 240.734375 141.234375 244.175781 C 139.785156 246.335938 137.40625 247.5 134.992188 247.5 Z M 134.992188 247.5 "/>
  <path style="stroke:none;fill-rule:nonzero;fill:#201040;" d="M 225.007812 247.5 C 222.59375 247.5 220.214844 246.335938 218.765625 244.175781 C 216.464844 240.734375 217.378906 236.078125 220.824219 233.765625 L 256.476562 209.863281 L 220.851562 186.246094 C 217.402344 183.960938 216.457031 179.308594 218.753906 175.851562 C 221.039062 172.402344 225.683594 171.441406 229.148438 173.753906 L 274.148438 203.585938 C 276.234375 204.976562 277.492188 207.308594 277.5 209.8125 C 277.507812 212.324219 276.261719 214.664062 274.175781 216.066406 L 229.175781 246.234375 C 227.894531 247.085938 226.441406 247.5 225.007812 247.5 Z M 225.007812 247.5 "/>
</g>
</svg>
